# xmcd
#
# Track frame offsets:
#	150
#	19115
#	37987
#
# Disc length: 745 seconds
# Revision: 0
# Processed by: cddbd v1.5.2PL0 Copyright (c) Steve Scherf et al.
# Submitted via: dBpowerAMP V12.0
#
DISCID=1802e703
DTITLE=The Temptations - I'm Here
DYEAR=2000
DGENRE=House
TTITLE0=I'm Here [Metro Radio Mix 1]
TTITLE1=I'm Here [Metro Instrumental]
TTITLE2=I'm Here [Main Radio Edit]
EXTD=
EXTT0=
EXTT1=
EXTT2=
PLAYORDER=
